<?xml version="1.0" encoding="utf-8"?>
<!-- Generator: Adobe Illustrator 16.0.0, SVG Export Plug-In . SVG Version: 6.00 Build 0)  -->
<!DOCTYPE svg PUBLIC "-//W3C//DTD SVG 1.1//EN" "http://www.w3.org/Graphics/SVG/1.1/DTD/svg11.dtd">
<svg version="1.1" id="Layer_1" xmlns="http://www.w3.org/2000/svg" xmlns:xlink="http://www.w3.org/1999/xlink" x="0px" y="0px"
	 width="249.997px" height="271.81px" viewBox="0 0 249.997 271.81" enable-background="new 0 0 249.997 271.81"
	 xml:space="preserve">
<rect x="100.888" y="132.597" fill="#FFC63E" width="141.588" height="139.213"/>
<path fill="#F58620" d="M188.771,4.672h-34.178c-29.661,0-53.705,24.045-53.705,53.705h141.588
	C242.476,28.717,218.431,4.672,188.771,4.672"/>
<rect x="100.887" y="58.377" fill="#FFC63E" width="6.47" height="74.219"/>
<rect x="236.006" y="58.377" fill="#FFC63E" width="6.471" height="74.219"/>
<rect x="122.224" y="103.083" fill="#F58620" width="39.645" height="29.513"/>
<rect x="133.046" y="98.177" fill="#F58620" width="4.728" height="4.907"/>
<g opacity="0.7">
	<g>
		<defs>
			<rect id="SVGID_1_" x="122.224" y="124.663" width="39.645" height="7.93"/>
		</defs>
		<clipPath id="SVGID_2_">
			<use xlink:href="#SVGID_1_"  overflow="visible"/>
		</clipPath>
		<rect x="122.224" y="124.658" clip-path="url(#SVGID_2_)" fill="#F58620" width="39.645" height="7.938"/>
	</g>
</g>
<g opacity="0.7">
	<g>
		<defs>
			<rect id="SVGID_3_" x="133.046" y="98.443" width="4.728" height="2.03"/>
		</defs>
		<clipPath id="SVGID_4_">
			<use xlink:href="#SVGID_3_"  overflow="visible"/>
		</clipPath>
		<rect x="133.046" y="98.445" clip-path="url(#SVGID_4_)" fill="#F58620" width="4.728" height="2.032"/>
	</g>
</g>
<rect x="128.773" y="93.292" fill="#F58620" width="13.273" height="5.017"/>
<g>
	<g>
		<defs>
			<rect id="SVGID_5_" x="100.888" y="58.373" width="6.469" height="8.08"/>
		</defs>
		<clipPath id="SVGID_6_">
			<use xlink:href="#SVGID_5_"  overflow="visible"/>
		</clipPath>
		<rect x="100.887" y="58.376" clip-path="url(#SVGID_6_)" fill="#FFC63E" width="6.47" height="8.075"/>
	</g>
</g>
<g>
	<g>
		<defs>
			<rect id="SVGID_7_" x="236.006" y="58.373" width="6.471" height="8.08"/>
		</defs>
		<clipPath id="SVGID_8_">
			<use xlink:href="#SVGID_7_"  overflow="visible"/>
		</clipPath>
		<rect x="236.006" y="58.376" clip-path="url(#SVGID_8_)" fill="#FFC63E" width="6.471" height="8.075"/>
	</g>
</g>
<rect x="93.367" y="132.597" fill="#F58620" width="156.63" height="11.687"/>
<path fill="#00BCCC" d="M227.983,127.018h-36.748c-1.54,0-2.789,1.249-2.789,2.789c0,1.541,1.249,2.79,2.789,2.79h36.748
	c1.541,0,2.789-1.249,2.789-2.79C230.772,128.267,229.524,127.018,227.983,127.018"/>
<path fill="#A9C679" d="M227.983,121.869h-36.748c-1.54,0-2.789,1.249-2.789,2.789c0,1.541,1.249,2.79,2.789,2.79h36.748
	c1.541,0,2.789-1.249,2.789-2.79C230.772,123.118,229.524,121.869,227.983,121.869"/>
<path fill="#FFD54B" d="M227.983,116.72h-36.748c-1.54,0-2.789,1.249-2.789,2.789c0,1.541,1.249,2.79,2.789,2.79h36.748
	c1.541,0,2.789-1.249,2.789-2.79C230.772,117.969,229.524,116.72,227.983,116.72"/>
<path fill="#00BCCC" d="M227.983,111.571h-36.748c-1.54,0-2.789,1.249-2.789,2.789c0,1.541,1.249,2.79,2.789,2.79h36.748
	c1.541,0,2.789-1.249,2.789-2.79C230.772,112.82,229.524,111.571,227.983,111.571"/>
<path fill="#DD4F76" d="M227.983,106.422h-36.748c-1.54,0-2.789,1.249-2.789,2.789c0,1.541,1.249,2.79,2.789,2.79h36.748
	c1.541,0,2.789-1.249,2.789-2.79C230.772,107.671,229.524,106.422,227.983,106.422"/>
<rect x="9.821" y="44.602" transform="matrix(-0.2801 0.96 -0.96 -0.2801 76.4897 50.6825)" fill="#FFC63E" width="18.839" height="18.839"/>
<rect x="7.195" y="37.467" transform="matrix(0.7071 0.7071 -0.7071 0.7071 37.1199 0.9661)" fill="#F58620" width="20.398" height="15.648"/>
<polygon fill="#B15B3F" points="51.695,271.809 40.266,271.809 38.365,200.767 47.154,200.767 45.643,267.231 "/>
<polygon fill="#B15B3F" points="22.546,271.809 33.976,271.809 35.876,200.767 27.087,200.767 28.599,267.231 "/>
<path fill="#B15B3F" d="M56.695,178.502h4.992c0,0,4.14-19.481,4.14-31.932c0-12.451-4.14-43.732-4.14-43.732h-4.992
	c0,0,3.808,35.154,3.808,43.544C60.503,154.772,56.695,178.502,56.695,178.502"/>
<path fill="#B15B3F" d="M55.432,178.502c0,2.097,1.7,3.797,3.797,3.797c2.098,0,3.798-1.7,3.798-3.797
	c0-2.097-1.7-3.797-3.798-3.797C57.132,174.705,55.432,176.405,55.432,178.502"/>
<path fill="#B15B3F" d="M17.547,178.502h-4.992c0,0-4.14-19.481-4.14-31.932c0-12.451,4.14-43.732,4.14-43.732h4.992
	c0,0-3.808,35.154-3.808,43.544C13.739,154.772,17.547,178.502,17.547,178.502"/>
<rect x="33.221" y="73.902" fill="#B15B3F" width="7.799" height="29.376"/>
<g opacity="0.9">
	<g>
		<defs>
			<rect id="SVGID_9_" x="33.221" y="88.343" width="7.799" height="5.47"/>
		</defs>
		<clipPath id="SVGID_10_">
			<use xlink:href="#SVGID_9_"  overflow="visible"/>
		</clipPath>
		<polygon clip-path="url(#SVGID_10_)" fill="#B15B3F" points="33.222,88.344 33.222,91.442 41.021,93.808 41.021,88.344 		"/>
	</g>
</g>
<path fill="#B15B3F" d="M18.81,178.502c0,2.097-1.7,3.797-3.797,3.797c-2.098,0-3.798-1.7-3.798-3.797
	c0-2.097,1.7-3.797,3.798-3.797C17.11,174.705,18.81,176.405,18.81,178.502"/>
<path fill="#B15B3F" d="M56.992,69.665c1.342,5.395-1.775,16.355-12.453,18.678c-1.167,0.255-2.342,0.461-3.517,0.612
	c-2.648,0.349-5.289,0.439-7.801,0.246c-7.197-0.561-13.322-3.457-15.449-9.276c-0.66-1.805-1.523-4.956-2.205-8.812
	c-0.058-0.315-0.112-0.633-0.164-0.957c-0.051-0.315-0.103-0.636-0.151-0.964c-0.236-1.569-0.436-3.232-0.579-4.943
	c-0.048-0.591-0.087-1.185-0.121-1.785c-0.045-0.787-0.076-1.578-0.091-2.377c-0.039-2.124,0.034-4.284,0.255-6.41
	c0.366-3.533,1.148-6.983,2.514-10.054c0.957-2.139,2.199-4.099,3.787-5.774c3.514-3.708,8.724-6.032,16.288-5.898
	c0.245,0.003,0.494,0.012,0.745,0.021c0.155,0.006,0.309,0.015,0.46,0.024c0.082,0.003,0.164,0.009,0.243,0.015
	c0.306,0.025,0.606,0.055,0.903,0.094c0.13,0.015,0.257,0.034,0.384,0.052c10.636,1.611,14.786,12.583,16.358,19.511
	c0.751,3.311,0.915,5.701,0.915,5.701c-0.051,0.167-0.109,0.333-0.17,0.503c-0.063,0.17-0.13,0.339-0.199,0.515
	c-0.025,0.061-0.049,0.124-0.076,0.188c-0.015,0.042-0.031,0.085-0.049,0.13v0.003c-0.569,1.482-1.178,3.429-0.521,7.61v0.003
	c0.079,0.49,0.173,1.015,0.288,1.572c0.021,0.103,0.042,0.206,0.067,0.309C56.752,68.665,56.865,69.153,56.992,69.665"/>
<g>
	<g>
		<defs>
			<rect id="SVGID_11_" x="40.429" y="57.603" width="8.786" height="18.53"/>
		</defs>
		<clipPath id="SVGID_12_">
			<use xlink:href="#SVGID_11_"  overflow="visible"/>
		</clipPath>
		<path clip-path="url(#SVGID_12_)" fill="#B15B3F" d="M45.293,57.603c-0.086,2.473,0.009,4.961,0.39,7.396
			c0.183,1.215,0.469,2.422,0.912,3.537c0.225,0.553,0.495,1.087,0.842,1.524c0.171,0.219,0.363,0.415,0.574,0.554
			c0.205,0.156,0.434,0.233,0.659,0.291l0.545,0.143l-0.197,0.542c-0.193,0.534-0.407,0.998-0.635,1.507
			c-0.114,0.252-0.241,0.502-0.389,0.746c-0.133,0.253-0.32,0.481-0.487,0.727c-0.201,0.219-0.395,0.456-0.64,0.649
			c-0.254,0.18-0.492,0.393-0.797,0.514c-0.286,0.151-0.593,0.261-0.921,0.312c-0.318,0.09-0.645,0.093-0.969,0.078
			c-0.328,0.016-0.632-0.089-0.933-0.165c-0.307-0.072-0.573-0.216-0.834-0.36c-0.266-0.132-0.511-0.282-0.729-0.463
			c-0.239-0.184-0.415-0.304-0.693-0.526c-0.28-0.253-0.458-0.575-0.525-0.912c-0.042-0.288-0.059-0.587,0.004-0.887
			c0.048-0.297,0.256-0.629,0.55-0.73c0.284-0.109,0.552-0.06,0.796-0.006c-0.247,0.034-0.503,0.101-0.653,0.249
			c-0.15,0.145-0.168,0.324-0.131,0.52c0.037,0.198,0.126,0.395,0.233,0.58c0.094,0.133,0.233,0.225,0.363,0.254l0.644,0.134
			c0.222,0.059,0.446,0.068,0.662,0.063c0.216,0,0.422,0.02,0.615-0.026c0.193-0.022,0.381-0.025,0.551-0.075
			c0.173-0.039,0.344-0.052,0.505-0.112c0.081-0.025,0.163-0.045,0.247-0.059c0.08-0.035,0.16-0.067,0.244-0.092
			c0.337-0.097,0.681-0.267,1.058-0.448c0.176-0.113,0.378-0.203,0.551-0.343c0.185-0.126,0.361-0.27,0.534-0.425
			c0.338-0.306,0.631-0.705,0.835-1.083l0.349,0.685c-0.365-0.126-0.713-0.3-0.984-0.545c-0.285-0.233-0.505-0.511-0.689-0.796
			c-0.372-0.572-0.606-1.184-0.793-1.795c-0.37-1.228-0.51-2.477-0.634-3.716c-0.113-1.242-0.144-2.485-0.138-3.725
			C45.177,60.079,45.208,58.839,45.293,57.603"/>
	</g>
</g>
<path fill="#FFFFFF" d="M27.801,59.688c0,0,9.478-1.137,10.994,7.772c0,0-1.516,3.033-7.582,1.516
	C25.147,67.459,25.526,62.72,27.801,59.688"/>
<g opacity="0.4">
	<g>
		<defs>
			<rect id="SVGID_13_" x="25.765" y="59.383" width="13.484" height="10.52"/>
		</defs>
		<clipPath id="SVGID_14_">
			<use xlink:href="#SVGID_13_"  overflow="visible"/>
		</clipPath>
		<path clip-path="url(#SVGID_14_)" fill="none" stroke="#B15B3F" stroke-width="1.015" stroke-miterlimit="10" d="M38.795,67.459
			c0,0-1.516,3.033-7.582,1.516c-6.066-1.516-5.687-6.255-3.412-9.288"/>
	</g>
</g>
<path fill="#571716" d="M38.797,67.462c0,0-0.175,0.35-0.646,0.747c-8.514-0.383-5.91-8.124-5.91-8.124
	C34.928,60.826,37.989,62.717,38.797,67.462"/>
<path fill="#010101" d="M38.722,67.477l-0.244-0.902c-0.091-0.297-0.138-0.614-0.281-0.886l-0.365-0.839
	c-0.099-0.289-0.309-0.526-0.458-0.79c-0.166-0.255-0.308-0.527-0.525-0.743l-0.6-0.682l-0.692-0.585
	c-0.221-0.206-0.502-0.335-0.748-0.506c-0.246-0.174-0.52-0.3-0.794-0.425c-0.27-0.134-0.543-0.259-0.833-0.346
	c-0.286-0.095-0.564-0.208-0.862-0.267c-0.295-0.066-0.581-0.158-0.882-0.195c-0.594-0.104-1.195-0.172-1.797-0.187
	c-0.596-0.025-1.22-0.003-1.779,0.067l-0.087,0.011l-0.054-0.014c-0.69-0.178-1.409-0.54-1.827-1.175
	c-0.417-0.625-0.477-1.399-0.238-2.036l0.201,0.057c-0.092,0.602,0.12,1.223,0.514,1.595c0.393,0.384,0.947,0.529,1.51,0.557
	l-0.14-0.002h0.001c0.681-0.046,1.308-0.026,1.955,0.035c0.642,0.054,1.278,0.162,1.904,0.31c0.316,0.058,0.62,0.173,0.929,0.262
	c0.311,0.082,0.605,0.219,0.904,0.339c0.302,0.111,0.588,0.261,0.869,0.421c0.285,0.151,0.568,0.303,0.823,0.504
	c0.255,0.198,0.54,0.353,0.766,0.585l0.698,0.665l0.593,0.756c0.214,0.241,0.348,0.534,0.506,0.81
	c0.141,0.286,0.339,0.54,0.429,0.851l0.328,0.896c0.13,0.294,0.157,0.605,0.231,0.908l0.192,0.915L38.722,67.477z"/>
<path fill="#010101" d="M29.267,60.116c0.014,0.007-0.062-0.037-0.133-0.097c-0.074-0.062-0.172-0.15-0.272-0.269
	c-0.206-0.231-0.41-0.604-0.473-0.988c-0.135-0.794,0.285-1.396,0.256-1.392c0,0-0.021,0.171-0.008,0.417
	c0.006,0.245,0.073,0.565,0.232,0.809c0.153,0.248,0.372,0.418,0.551,0.504c0.087,0.046,0.164,0.072,0.214,0.086
	c0.053,0.016,0.054,0.005,0.068,0.013L29.267,60.116z"/>
<path fill="#FFFFFF" d="M56.943,58.387c-0.024,0.061-0.049,0.124-0.076,0.188c-0.015,0.042-0.03,0.085-0.048,0.13v0.003l-0.521,7.61
	v0.003c0.078,0.49,0.172,1.014,0.287,1.572c0.022,0.103,0.043,0.206,0.067,0.309c-0.457,0.33-0.969,0.454-1.49,0.442h-0.021
	c-1.394-0.033-2.851-1-3.502-1.49c-0.221-0.164-0.349-0.276-0.349-0.276c-0.303-1.039-0.436-1.097-0.439-1.948v-0.024
	c0-0.088,0.003-0.176,0.006-0.261c0-0.036,0-0.075,0.003-0.115c0.009-0.142,0.018-0.281,0.037-0.418
	c0.006-0.091,0.018-0.181,0.03-0.269c0-0.009,0-0.015,0.003-0.019c0.003-0.012,0.006-0.027,0.009-0.039
	c0.003-0.018,0.006-0.033,0.009-0.051c0.012-0.085,0.027-0.17,0.042-0.252c0.352-1.708,1.315-2.859,2.385-3.629
	c1.287-0.927,2.732-1.305,3.462-1.445c0.012-0.003,0.024-0.006,0.036-0.006C56.898,58.396,56.922,58.393,56.943,58.387"/>
<path fill="#FFFFFF" d="M56.874,58.333v0.07l-0.006,0.172c-0.015,0.043-0.03,0.085-0.049,0.131v0.003l-0.521,7.609v0.003
	c0.079,0.491,0.173,1.015,0.288,1.572c-0.384,0.512-0.884,0.724-1.424,0.752h-0.021c-1.305,0.051-2.829-0.976-3.502-1.491
	c-0.221-0.163-0.348-0.276-0.348-0.276c-0.303-1.039-0.436-1.096-0.439-1.947v-0.025c0-0.087,0.003-0.175,0.006-0.26
	c0-0.036,0-0.076,0.003-0.115c0.009-0.143,0.018-0.282,0.036-0.418c0.006-0.091,0.018-0.182,0.031-0.27c0-0.009,0-0.015,0.003-0.018
	c0.003-0.012,0.006-0.027,0.009-0.039c0.003-0.019,0.006-0.034,0.009-0.052c0.006-0.051,0.015-0.1,0.021-0.151
	c0-0.006,0-0.012,0.003-0.019c0.012-0.066,0.024-0.13,0.039-0.196c0.025-0.113,0.049-0.222,0.079-0.328
	c0.021-0.078,0.043-0.157,0.067-0.236c0.051-0.185,0.112-0.36,0.185-0.527c0.054-0.133,0.112-0.267,0.172-0.394
	c0.482-0.963,1.173-1.669,1.9-2.184c1.514-1.078,3.183-1.33,3.429-1.36C56.864,58.333,56.874,58.333,56.874,58.333"/>
<path fill="#571716" d="M56.874,57.893v0.021l-0.03,0.424l-0.006,0.07l-0.019,0.297v0.003l-0.521,7.609v0.003
	c-1.587,0.176-2.075,0.113-2.602-0.618c-1.19-1.641-0.599-4.713-0.321-5.849c0.012-0.058,0.028-0.109,0.04-0.155
	c0.045-0.181,0.075-0.284,0.075-0.284c0.003-0.006,0.009-0.009,0.012-0.012c0.167-0.161,0.37-0.312,0.597-0.449
	c0.864-0.53,2.027-0.869,2.53-0.999C56.782,57.915,56.874,57.893,56.874,57.893"/>
<path fill="#010101" d="M50.853,64.932c0,0-0.016-0.207-0.044-0.568c-0.003-0.362,0.01-0.895,0.136-1.518
	c0.13-0.622,0.388-1.34,0.822-2.024c0.424-0.687,1.013-1.336,1.682-1.873c0.335-0.269,0.692-0.507,1.05-0.729
	c0.323-0.218,0.813-0.425,1.206-0.492c0.802-0.165,1.51-0.177,2.089-0.283c0.581-0.086,1.011-0.276,1.206-0.547
	c0.101-0.131,0.144-0.265,0.178-0.355c0.024-0.095,0.037-0.145,0.037-0.145c-0.018-0.002,0.089,0.207-0.032,0.594
	c-0.115,0.404-0.629,0.799-1.244,1.001c-0.615,0.218-1.35,0.327-2.055,0.499c-0.368,0.083-0.612,0.207-0.977,0.418
	c-0.334,0.2-0.668,0.413-0.979,0.654c-0.636,0.467-1.188,1.031-1.636,1.616c-0.443,0.589-0.764,1.211-0.967,1.776
	c-0.221,0.563-0.324,1.059-0.383,1.413C50.885,64.727,50.853,64.932,50.853,64.932"/>
<g>
	<g>
		<defs>
			<rect id="SVGID_15_" x="27.339" y="78.212" width="21.789" height="5.66"/>
		</defs>
		<clipPath id="SVGID_16_">
			<use xlink:href="#SVGID_15_"  overflow="visible"/>
		</clipPath>
		
			<path clip-path="url(#SVGID_16_)" fill="none" stroke="#B15B3F" stroke-width="1.015" stroke-linecap="round" stroke-miterlimit="10" d="
			M27.846,78.718c0,0,7.537,7.852,20.774,3.141"/>
	</g>
</g>
<path fill="#B15B3F" d="M17.484,67.276c0,1.676-1.359,3.035-3.035,3.035c-1.676,0-3.034-1.359-3.034-3.035
	c0-1.676,1.358-3.035,3.034-3.035C16.125,64.241,17.484,65.6,17.484,67.276"/>
<path fill="#FFC63E" d="M15.827,70.31c0,0.76-0.616,1.377-1.377,1.377c-0.76,0-1.377-0.617-1.377-1.377
	c0-0.76,0.617-1.377,1.377-1.377C15.211,68.933,15.827,69.55,15.827,70.31"/>
<path fill="#FFC63E" d="M56.58,51.685c-13.474-1.434-42.119,8.401-42.119,8.401c-0.865-14.795,2.84-28.909,23.59-28.115
	C50.63,32.456,55.072,44.739,56.58,51.685"/>
<g opacity="0.9">
	<g>
		<defs>
			<rect id="SVGID_17_" x="27.707" y="224.613" width="7.411" height="9"/>
		</defs>
		<clipPath id="SVGID_18_">
			<use xlink:href="#SVGID_17_"  overflow="visible"/>
		</clipPath>
		<polygon clip-path="url(#SVGID_18_)" fill="#B15B3F" points="27.834,233.611 35.118,229.111 35.118,224.616 27.707,228.008 		"/>
	</g>
</g>
<g opacity="0.9">
	<g>
		<defs>
			<rect id="SVGID_19_" x="38.892" y="217.073" width="7.789" height="9.92"/>
		</defs>
		<clipPath id="SVGID_20_">
			<use xlink:href="#SVGID_19_"  overflow="visible"/>
		</clipPath>
		<polygon clip-path="url(#SVGID_20_)" fill="#B15B3F" points="39.042,226.992 46.681,222.958 46.681,217.072 38.892,220.432 		"/>
	</g>
</g>
<path fill="#F58620" d="M57.174,215.854L0,239.438c14.317-32.518,24.235-96.891,24.235-96.891h25.3l11.783,62.163
	C62.175,208.911,60.567,213.233,57.174,215.854"/>
<g opacity="0.9">
	<g>
		<defs>
			<rect id="SVGID_21_" x="11.479" y="102.843" width="4.764" height="16.07"/>
		</defs>
		<clipPath id="SVGID_22_">
			<use xlink:href="#SVGID_21_"  overflow="visible"/>
		</clipPath>
		<polygon clip-path="url(#SVGID_22_)" fill="#B15B3F" points="12.554,102.838 11.479,111.429 15.891,118.915 16.243,115.379 		"/>
	</g>
</g>
<g opacity="0.9">
	<g>
		<defs>
			<rect id="SVGID_23_" x="57.998" y="102.843" width="4.765" height="16.07"/>
		</defs>
		<clipPath id="SVGID_24_">
			<use xlink:href="#SVGID_23_"  overflow="visible"/>
		</clipPath>
		<polygon clip-path="url(#SVGID_24_)" fill="#B15B3F" points="61.687,102.838 62.763,111.429 58.35,118.915 57.998,115.379 		"/>
	</g>
</g>
<polygon fill="#FFC63E" points="49.88,142.547 24.234,142.547 12.554,102.838 61.687,102.838 "/>
<polygon fill="#B15B3F" points="24.433,102.838 49.809,102.838 37.121,109.223 "/>
</svg>
