<?xml version="1.0" encoding="utf-8"?>
<!-- Generator: Adobe Illustrator 16.0.0, SVG Export Plug-In . SVG Version: 6.00 Build 0)  -->
<!DOCTYPE svg PUBLIC "-//W3C//DTD SVG 1.1//EN" "http://www.w3.org/Graphics/SVG/1.1/DTD/svg11.dtd">
<svg version="1.1" id="Layer_1" xmlns="http://www.w3.org/2000/svg" xmlns:xlink="http://www.w3.org/1999/xlink" x="0px" y="0px"
	 width="600px" height="600px" viewBox="0 0 600 600" enable-background="new 0 0 600 600" xml:space="preserve">
<path fill="#B25A3F" d="M165.879,438.361c0,5.779,4.684,10.463,10.462,10.463c5.776,0,10.461-4.684,10.461-10.463
	c0-5.777-4.685-10.461-10.461-10.461C170.562,427.9,165.879,432.584,165.879,438.361"/>
<rect x="285.2" y="295.993" transform="matrix(-0.9933 0.1158 -0.1158 -0.9933 626.6423 699.9524)" fill="#B25A3F" width="15.589" height="144.361"/>
<rect x="207.34" y="524.023" fill="#B25A3F" width="18.038" height="75.977"/>
<rect x="245.507" y="524.023" fill="#B25A3F" width="18.038" height="75.977"/>
<rect x="168.545" y="291" fill="#B25A3F" width="15.59" height="144.362"/>
<polygon fill="#FFC73E" points="265.545,391.334 198.212,391.334 167.545,291 296.544,291 "/>
<polygon fill="#F68720" points="292.419,544.334 171.339,588.334 198.212,391.334 265.546,391.334 "/>
<rect x="172.833" y="116.494" transform="matrix(0.6522 0.7581 -0.7581 0.6522 170.0854 -98.5333)" fill="#FFC73E" width="39.163" height="39.164"/>
<rect x="161.031" y="131.497" transform="matrix(0.9909 0.1343 -0.1343 0.9909 21.9267 -22.8881)" fill="#F68720" width="39.163" height="39.164"/>
<path fill="#B25A3F" d="M296.544,193.149c0,42.746-28.542,77.399-63.75,77.399s-63.752-34.653-63.752-77.399
	s28.543-77.399,63.752-77.399S296.544,150.403,296.544,193.149"/>
<path fill="#FFC73E" d="M294.355,173.011L169.306,200.27c-0.181-2.339-0.266-4.727-0.266-7.127
	c0-42.737,28.544-77.389,63.754-77.389C262.271,115.754,287.07,140.031,294.355,173.011"/>
<polygon fill="#B25A3F" points="250.379,290.997 230.879,313.666 213.379,290.997 222.379,290.997 222.379,241.736 241.379,241.736 
	241.379,290.997 "/>
<path fill="#B25A3F" d="M311.741,438.658c0.668,5.74-3.443,10.936-9.182,11.604c-5.738,0.67-10.932-3.441-11.601-9.182
	c-0.669-5.738,3.441-10.932,9.179-11.602C305.876,428.811,311.071,432.92,311.741,438.658"/>
<path fill="#B25A3F" d="M309.46,436.57c-5.18-2.564-11.453-0.445-14.017,4.734c-2.562,5.176-0.445,11.452,4.734,14.016
	c5.178,2.564,11.453,0.445,14.018-4.732C316.757,445.409,314.638,439.134,309.46,436.57"/>
<rect x="346.792" y="524.022" fill="#B25A3F" width="18.039" height="75.977"/>
<rect x="384.96" y="524.022" fill="#B25A3F" width="18.037" height="75.977"/>
<rect x="324.863" y="431.665" transform="matrix(-0.4437 0.8962 -0.8962 -0.4437 892.2607 365.61)" fill="#B25A3F" width="15.591" height="56.131"/>
<path fill="#B25A3F" d="M421.376,511.822c2.318,5.295,8.486,7.705,13.779,5.387c5.291-2.316,7.703-8.486,5.385-13.78
	c-2.316-5.292-8.486-7.704-13.777-5.386C421.468,500.361,419.058,506.529,421.376,511.822"/>
<rect x="410.701" y="451.103" transform="matrix(0.916 -0.4012 0.4012 0.916 -157.0808 208.1471)" fill="#B25A3F" width="15.591" height="56.131"/>
<polygon fill="#FFC73E" points="407.587,501.008 341.366,500.984 332.763,450.334 414.649,450.334 "/>
<polygon fill="#F68720" points="424.642,580.945 328.983,563.896 341.366,500.984 407.587,501.008 "/>
<rect x="313.181" y="318.734" transform="matrix(0.6522 0.7581 -0.7581 0.6522 372.2127 -134.5819)" fill="#FFC73E" width="39.163" height="39.164"/>
<rect x="301.378" y="333.736" transform="matrix(0.9909 0.1343 -0.1343 0.9909 50.3601 -39.9053)" fill="#F68720" width="39.163" height="39.164"/>
<path fill="#B25A3F" d="M430.601,370.145c0,32.992-24.941,59.736-55.705,59.736s-55.705-26.744-55.705-59.736
	c0-32.991,24.941-59.736,55.705-59.736S430.601,337.153,430.601,370.145"/>
<path fill="#FFC73E" d="M428.685,354.603l-109.264,21.038c-0.156-1.805-0.23-3.648-0.23-5.5c0-32.984,24.939-59.729,55.705-59.729
	C400.651,310.412,422.321,329.148,428.685,354.603"/>
<polygon fill="#B25A3F" points="393.228,450.33 373.728,473 356.228,450.33 365.228,450.33 365.228,401.07 384.228,401.07 
	384.228,450.33 "/>
</svg>
