<?xml version="1.0" encoding="utf-8"?>
<!-- Generator: Adobe Illustrator 16.0.0, SVG Export Plug-In . SVG Version: 6.00 Build 0)  -->
<!DOCTYPE svg PUBLIC "-//W3C//DTD SVG 1.1//EN" "http://www.w3.org/Graphics/SVG/1.1/DTD/svg11.dtd">
<svg version="1.1" id="Layer_1" xmlns="http://www.w3.org/2000/svg" xmlns:xlink="http://www.w3.org/1999/xlink" x="0px" y="0px"
	 width="350px" height="250px" viewBox="0 0 350 250" enable-background="new 0 0 350 250" xml:space="preserve">
<rect x="24.765" y="40.168" transform="matrix(0.9835 -0.1812 0.1812 0.9835 -12.7537 27.5966)" fill="#F8991E" width="239.833" height="86.884"/>
<path fill="#FFFFFF" d="M78.859,108.547c-2.522,3.45-5.839,5.553-9.95,6.31c-4.111,0.757-7.742,0.117-10.894-1.923
	c-3.152-2.039-5.121-5.19-5.906-9.452c-0.785-4.262-0.042-7.903,2.23-10.924c2.271-3.022,5.27-4.875,8.995-5.562
	c3.726-0.687,7.096-0.145,10.111,1.625c3.015,1.77,4.884,4.617,5.607,8.544l0.743,4.027l-19.735,3.635
	c0.507,1.435,1.502,2.5,2.984,3.198c1.481,0.7,3.045,0.896,4.689,0.594c2.651-0.488,4.67-1.779,6.053-3.874L78.859,108.547z
	 M68.652,93.824c-1.202-0.68-2.549-0.883-4.042-0.609c-1.494,0.275-2.778,0.98-3.852,2.116c-1.075,1.135-1.571,2.493-1.488,4.073
	l11.881-2.188C70.685,95.635,69.853,94.506,68.652,93.824"/>
<rect x="83.73" y="72.701" transform="matrix(0.9835 -0.1811 0.1811 0.9835 -15.1566 17.374)" fill="#FFFFFF" width="7.679" height="37.981"/>
<path fill="#FFFFFF" d="M124.67,100.107c-2.522,3.45-5.84,5.553-9.95,6.31c-4.111,0.757-7.743,0.117-10.895-1.923
	c-3.151-2.039-5.12-5.19-5.905-9.452c-0.785-4.262-0.043-7.903,2.23-10.924c2.271-3.022,5.27-4.875,8.994-5.562
	c3.726-0.687,7.096-0.145,10.11,1.625c3.015,1.77,4.885,4.617,5.609,8.544l0.741,4.027l-19.734,3.635
	c0.508,1.434,1.502,2.5,2.984,3.198c1.482,0.7,3.044,0.897,4.689,0.594c2.651-0.488,4.67-1.779,6.053-3.874L124.67,100.107z
	 M114.462,85.384c-1.202-0.68-2.549-0.883-4.042-0.609c-1.494,0.275-2.778,0.98-3.853,2.115c-1.075,1.135-1.571,2.493-1.488,4.074
	l11.881-2.189C116.496,87.195,115.663,86.066,114.462,85.384"/>
<polygon fill="#FFFFFF" points="139.942,101.354 124.22,76.195 132.074,74.749 141.963,90.571 145.564,72.263 153.419,70.816 
	147.694,99.926 "/>
<path fill="#FFFFFF" d="M184.796,93.09l-7.098,1.308l-0.603-3.272c-1.496,2.81-3.677,4.477-6.546,5.005
	c-2.87,0.53-5.431,0.143-7.683-1.16c-2.253-1.303-3.634-3.339-4.145-6.108c-0.51-2.768,0.115-5.026,1.875-6.773
	c1.76-1.747,4.386-2.942,7.876-3.585l5.638-1.039l-0.028-0.151c-0.532-2.886-2.324-4.047-5.379-3.484
	c-1.308,0.241-2.645,0.756-4.009,1.545c-1.364,0.79-2.478,1.663-3.343,2.621l-4.273-4.262c3.082-3.239,6.905-5.28,11.469-6.122
	c3.289-0.605,6.125-0.277,8.51,0.984c2.383,1.261,3.903,3.671,4.559,7.228L184.796,93.09z M175.294,84.171l-0.241-1.309
	l-4.733,0.872c-3.02,0.557-4.357,1.775-4.011,3.653c0.179,0.974,0.677,1.654,1.495,2.041c0.818,0.389,1.897,0.458,3.241,0.21
	c1.341-0.247,2.449-0.875,3.322-1.887C175.238,86.741,175.548,85.547,175.294,84.171"/>
<path fill="#FFFFFF" d="M196.415,68.569l2.234,12.132c0.191,1.041,0.61,1.805,1.254,2.293c0.645,0.489,1.338,0.665,2.076,0.529
	c1.409-0.26,2.482-1.117,3.221-2.571l3.794,4.766c-1.953,2.581-4.23,4.111-6.832,4.59s-4.958,0.028-7.067-1.352
	c-2.112-1.381-3.438-3.548-3.982-6.501l-2.3-12.485l-3.171,0.584l-1.002-5.437l3.173-0.583l-1.496-8.106l7.603-1.4l1.494,8.105
	l6.544-1.206l1,5.437L196.415,68.569z"/>
<path fill="#FFFFFF" d="M236.276,79.546c-2.522,3.45-5.84,5.553-9.95,6.31c-4.112,0.757-7.742,0.117-10.896-1.923
	c-3.151-2.039-5.119-5.19-5.905-9.452c-0.783-4.262-0.041-7.904,2.23-10.925c2.271-3.021,5.271-4.875,8.995-5.561
	c3.726-0.687,7.096-0.145,10.109,1.624c3.016,1.77,4.887,4.618,5.61,8.544l0.74,4.027l-19.734,3.635
	c0.509,1.435,1.502,2.5,2.984,3.198c1.482,0.699,3.046,0.897,4.69,0.593c2.65-0.488,4.669-1.778,6.052-3.873L236.276,79.546z
	 M226.068,64.823c-1.202-0.68-2.549-0.884-4.042-0.609c-1.492,0.275-2.777,0.98-3.853,2.115c-1.074,1.135-1.571,2.494-1.488,4.074
	l11.883-2.189C228.103,66.634,227.271,65.505,226.068,64.823"/>
<rect x="57.695" y="113.144" transform="matrix(0.9927 -0.1203 0.1203 0.9927 -19.2661 25.3411)" fill="#FFC953" width="285.109" height="118.189"/>
<path fill="#FFFFFF" d="M132.701,218.527l-11.91,1.441l-3.69-13.377l-14.484,1.756l-0.388,13.873l-10.835,1.312l2.915-76.561
	l17.274-2.094L132.701,218.527z M102.883,197.971l11.373-1.377l-10.289-37.293L102.883,197.971z"/>
<polygon fill="#FFFFFF" points="144.917,174.697 160.153,172.85 161.453,183.58 146.217,185.426 149.975,216.434 138.173,217.863 
	129.071,142.758 160.294,138.975 161.594,149.705 142.173,152.059 "/>
<path fill="#FFFFFF" d="M199.759,210.4c-0.878-1.852-1.45-2.98-2.191-9.096l-1.43-11.803c-0.846-6.975-3.519-9.264-8.883-8.613
	l-4.077,0.494l3.706,30.578l-11.802,1.43l-9.102-75.105l17.81-2.158c12.231-1.482,18.178,3.568,19.583,15.156l0.714,5.9
	c0.937,7.725-0.919,13.066-5.877,16.172c6.199,1.754,8.819,7.205,9.77,15.037l1.403,11.588c0.442,3.65,0.874,6.316,2.392,8.965
	L199.759,210.4z M179.082,147.586l2.795,23.068l4.614-0.561c4.398-0.533,6.848-2.789,6.119-8.799l-0.897-7.402
	c-0.649-5.365-2.759-7.502-6.945-6.996L179.082,147.586z"/>
<rect x="213.619" y="132.069" transform="matrix(-0.9927 0.1203 -0.1203 -0.9927 457.9646 312.1547)" fill="#FFFFFF" width="11.888" height="75.655"/>
<path fill="#FFFFFF" d="M269.432,173.543l1.209,9.979c1.456,12.016-3.722,19.611-15.309,21.018
	c-11.587,1.402-18.429-4.734-19.885-16.752l-4.733-39.057c-1.456-12.016,3.722-19.611,15.309-21.014
	c11.589-1.404,18.429,4.734,19.885,16.75l0.883,7.295l-11.157,1.354l-0.976-8.047c-0.649-5.365-3.257-7.117-7.013-6.662
	s-5.868,2.779-5.218,8.145l4.914,40.557c0.65,5.363,3.244,7.01,7,6.555c3.755-0.457,5.881-2.674,5.231-8.037l-1.3-10.729
	L269.432,173.543z"/>
<path fill="#FFFFFF" d="M318.208,196.047l-11.91,1.441l-3.688-13.377l-14.486,1.756l-0.386,13.873l-10.837,1.312l2.914-76.561
	l17.275-2.093L318.208,196.047z M288.391,175.492l11.374-1.379l-10.289-37.293L288.391,175.492z"/>
</svg>
