<?xml version="1.0" encoding="utf-8"?>
<!-- Generator: Adobe Illustrator 16.0.0, SVG Export Plug-In . SVG Version: 6.00 Build 0)  -->
<!DOCTYPE svg PUBLIC "-//W3C//DTD SVG 1.1//EN" "http://www.w3.org/Graphics/SVG/1.1/DTD/svg11.dtd">
<svg version="1.1" id="Layer_1" xmlns="http://www.w3.org/2000/svg" xmlns:xlink="http://www.w3.org/1999/xlink" x="0px" y="0px"
	 width="350px" height="250px" viewBox="0 0 350 250" enable-background="new 0 0 350 250" xml:space="preserve">
<g>
	
		<image overflow="visible" opacity="0.1" width="343" height="242" xlink:href="5318702374CB752D.png"  transform="matrix(1 0 0 1 3.5 1.5)">
	</image>
	<g>
		<g>
			
				<rect x="15.895" y="28.964" transform="matrix(-0.9834 0.1812 -0.1812 -0.9834 282.5063 119.0087)" fill="#F8991E" width="239.845" height="86.889"/>
			<path fill="#FFFFFF" d="M69.985,97.344c-2.522,3.45-5.839,5.553-9.95,6.31c-4.111,0.757-7.742,0.117-10.894-1.923
				c-3.152-2.039-5.121-5.19-5.906-9.452c-0.785-4.262-0.042-7.903,2.23-10.924c2.271-3.022,5.27-4.875,8.995-5.562
				c3.726-0.687,7.096-0.145,10.111,1.625c3.015,1.77,4.884,4.617,5.607,8.544l0.743,4.027l-19.735,3.635
				c0.507,1.435,1.502,2.5,2.984,3.198c1.481,0.7,3.045,0.896,4.689,0.594c2.651-0.488,4.67-1.779,6.053-3.874L69.985,97.344z
				 M59.778,82.622c-1.202-0.68-2.549-0.883-4.042-0.609c-1.494,0.275-2.778,0.98-3.852,2.116c-1.075,1.135-1.571,2.493-1.488,4.073
				l11.881-2.188C61.812,84.432,60.979,83.303,59.778,82.622"/>
			
				<rect x="74.86" y="61.5" transform="matrix(-0.9835 0.1811 -0.1811 -0.9835 170.6744 145.3999)" fill="#FFFFFF" width="7.679" height="37.983"/>
			<path fill="#FFFFFF" d="M115.796,88.904c-2.522,3.45-5.84,5.553-9.95,6.31c-4.111,0.757-7.743,0.117-10.895-1.923
				c-3.151-2.039-5.12-5.19-5.905-9.452c-0.785-4.262-0.043-7.903,2.23-10.924c2.271-3.022,5.27-4.875,8.994-5.562
				c3.726-0.687,7.096-0.145,10.11,1.625c3.015,1.77,4.885,4.617,5.609,8.544l0.741,4.027l-19.734,3.635
				c0.508,1.434,1.502,2.5,2.984,3.198c1.482,0.7,3.044,0.897,4.689,0.594c2.651-0.488,4.67-1.779,6.053-3.874L115.796,88.904z
				 M105.588,74.181c-1.202-0.68-2.549-0.883-4.042-0.609c-1.494,0.275-2.778,0.98-3.853,2.115
				c-1.075,1.135-1.571,2.493-1.488,4.074l11.881-2.189C107.623,75.992,106.79,74.863,105.588,74.181"/>
			<polygon fill="#FFFFFF" points="131.068,90.151 115.347,64.992 123.201,63.546 133.089,79.368 136.69,61.061 144.545,59.613 
				138.82,88.723 			"/>
			<path fill="#FFFFFF" d="M175.922,81.887l-7.097,1.308l-0.603-3.272c-1.496,2.81-3.678,4.477-6.547,5.005
				c-2.87,0.53-5.431,0.143-7.683-1.16c-2.253-1.303-3.634-3.339-4.145-6.108c-0.51-2.768,0.115-5.026,1.875-6.773
				c1.76-1.747,4.386-2.942,7.876-3.585l5.638-1.039l-0.028-0.151c-0.532-2.886-2.324-4.047-5.379-3.484
				c-1.308,0.241-2.645,0.756-4.009,1.545c-1.364,0.79-2.478,1.663-3.343,2.621l-4.273-4.262c3.082-3.239,6.905-5.28,11.469-6.122
				c3.289-0.605,6.125-0.277,8.51,0.984c2.383,1.261,3.903,3.671,4.56,7.228L175.922,81.887z M166.42,72.968l-0.241-1.309
				l-4.733,0.872c-3.02,0.557-4.357,1.775-4.011,3.653c0.179,0.974,0.677,1.654,1.495,2.041c0.818,0.389,1.897,0.458,3.241,0.21
				c1.341-0.247,2.449-0.875,3.322-1.887C166.364,75.539,166.674,74.344,166.42,72.968"/>
			<path fill="#FFFFFF" d="M187.541,57.366l2.234,12.132c0.191,1.041,0.609,1.805,1.254,2.293c0.645,0.489,1.338,0.665,2.076,0.529
				c1.41-0.26,2.482-1.117,3.221-2.571l3.795,4.766c-1.953,2.581-4.23,4.111-6.832,4.59s-4.959,0.028-7.066-1.352
				c-2.113-1.381-3.439-3.548-3.982-6.501l-2.301-12.485l-3.17,0.584l-1.002-5.437l3.172-0.583l-1.496-8.106l7.604-1.4l1.494,8.105
				l6.543-1.206l1,5.438L187.541,57.366z"/>
			<path fill="#FFFFFF" d="M227.402,68.343c-2.521,3.45-5.84,5.553-9.949,6.31c-4.113,0.757-7.742,0.117-10.896-1.923
				c-3.15-2.039-5.119-5.19-5.904-9.452c-0.783-4.262-0.041-7.904,2.229-10.925c2.271-3.021,5.271-4.875,8.996-5.561
				c3.727-0.687,7.096-0.145,10.109,1.624c3.016,1.77,4.887,4.618,5.609,8.544l0.74,4.027l-19.734,3.635
				c0.51,1.435,1.502,2.5,2.984,3.198c1.482,0.699,3.045,0.897,4.689,0.593c2.65-0.488,4.67-1.778,6.053-3.873L227.402,68.343z
				 M217.195,53.621c-1.203-0.68-2.549-0.884-4.043-0.609c-1.492,0.275-2.777,0.98-3.854,2.115c-1.072,1.135-1.57,2.494-1.486,4.074
				l11.883-2.189C219.23,55.431,218.398,54.302,217.195,53.621"/>
			
				<rect x="48.82" y="101.937" transform="matrix(-0.9927 0.1203 -0.1203 -0.9927 400.7206 297.8669)" fill="#FFC953" width="285.099" height="118.184"/>
			<path fill="#FFFFFF" d="M123.828,207.324l-11.91,1.441l-3.69-13.377l-14.484,1.756l-0.388,13.873l-10.835,1.312l2.915-76.562
				l17.274-2.094L123.828,207.324z M94.009,186.768l11.373-1.377l-10.289-37.293L94.009,186.768z"/>
			<polygon fill="#FFFFFF" points="136.043,163.494 151.279,161.646 152.58,172.377 137.343,174.223 141.102,205.23 129.299,206.66 
				120.197,131.555 151.42,127.771 152.72,138.502 133.299,140.855 			"/>
			<path fill="#FFFFFF" d="M190.885,199.197c-0.877-1.852-1.449-2.98-2.189-9.096l-1.43-11.803c-0.848-6.977-3.52-9.266-8.885-8.613
				l-4.077,0.494l3.706,30.578l-11.801,1.43l-9.102-75.105l17.81-2.158c12.232-1.482,18.177,3.568,19.583,15.156l0.713,5.9
				c0.938,7.725-0.918,13.066-5.877,16.172c6.199,1.754,8.82,7.205,9.771,15.037l1.402,11.588c0.441,3.65,0.873,6.316,2.393,8.965
				L190.885,199.197z M170.208,136.383l2.795,23.068l4.614-0.561c4.398-0.533,6.848-2.789,6.119-8.799l-0.896-7.402
				c-0.648-5.365-2.76-7.502-6.945-6.996L170.208,136.383z"/>
			
				<rect x="204.749" y="120.884" transform="matrix(0.9927 -0.1203 0.1203 0.9927 -17.5563 26.4882)" fill="#FFFFFF" width="11.889" height="75.65"/>
			<path fill="#FFFFFF" d="M260.559,162.34l1.209,9.979c1.457,12.018-3.723,19.611-15.309,21.02
				c-11.588,1.4-18.43-4.734-19.885-16.752l-4.734-39.059c-1.455-12.016,3.723-19.61,15.311-21.013
				c11.588-1.404,18.428,4.734,19.885,16.75l0.883,7.295l-11.158,1.355l-0.975-8.049c-0.65-5.363-3.258-7.115-7.014-6.66
				c-3.756,0.453-5.867,2.777-5.219,8.145l4.914,40.557c0.65,5.363,3.244,7.01,7,6.555c3.756-0.457,5.883-2.674,5.232-8.037
				l-1.301-10.729L260.559,162.34z"/>
			<path fill="#FFFFFF" d="M309.334,184.844l-11.91,1.441l-3.688-13.377l-14.486,1.756l-0.385,13.873l-10.838,1.312l2.914-76.561
				l17.275-2.093L309.334,184.844z M279.518,164.289l11.375-1.379l-10.289-37.293L279.518,164.289z"/>
		</g>
	</g>
</g>
</svg>
