<?xml version="1.0" encoding="utf-8"?>
<!-- Generator: Adobe Illustrator 16.0.0, SVG Export Plug-In . SVG Version: 6.00 Build 0)  -->
<!DOCTYPE svg PUBLIC "-//W3C//DTD SVG 1.1//EN" "http://www.w3.org/Graphics/SVG/1.1/DTD/svg11.dtd">
<svg version="1.1" id="Layer_1" xmlns="http://www.w3.org/2000/svg" xmlns:xlink="http://www.w3.org/1999/xlink" x="0px" y="0px"
	 width="200px" height="200px" viewBox="0 0 200 200" enable-background="new 0 0 200 200" xml:space="preserve">
<path display="none" fill="#CCCCCC" d="M143.736,58.686c-15.549-16.951-33.674-3.866-33.674-3.866l-60.146,59.733L49.818,150h35.349
	l58.569-58.668C143.736,91.332,158.236,74.496,143.736,58.686z M79.858,137.501H62.184v-17.772c0,0,9.512-8.11,17.674,0
	C88.02,127.84,79.858,137.501,79.858,137.501z M132.891,83.611c0,0-5.983-2.991-9.615-6.41c-3.633-3.418-7.533-11.033-7.533-11.033
	s9.669-8.409,17.675,0C141.421,74.577,132.891,83.611,132.891,83.611z"/>
<rect x="56.552" y="55" fill="#FFC953" width="86.896" height="21.724"/>
<rect x="56.552" y="123.275" fill="#FFC953" width="86.896" height="21.725"/>
<rect x="56.552" y="89.138" fill="#FFC953" width="86.896" height="21.723"/>
</svg>
